# xmcd
#
# Track frame offsets: 
#        150
#        17689
#        35013
#        54484
#        74454
#        94917
#        113366
#        130032
#        151786
#        175223
#        198458
#        213517
#        235967
#        256742
#        276784
#        297480
#        319516
#        340650
#
# Disc length: 4755 seconds
#
# Revision: 2
# Processed by: cddbd v1.5.2PL0 Copyright (c) Steve Scherf et al.
# Submitted via: ExactAudioCopyFreeDBPlugin 1.0
#
DISCID=fd129112
DTITLE=Jovanotti - Backup 1987-2012 [CD 1]
DYEAR=2012
DGENRE=Rap
TTITLE0=Tensione evolutiva
TTITLE1=Gimme five
TTITLE2=La mia moto
TTITLE3=Gente della notte
TTITLE4=Ciao mamma
TTITLE5=Muoviti muoviti
TTITLE6=Non m'annoio
TTITLE7=Ragazzo fortunato
TTITLE8=Chissà se stai dormendo
TTITLE9=Serenata rap
TTITLE10=Piove
TTITLE11=Penso positivo
TTITLE12=Io ti cercherò
TTITLE13=L'ombelico del mondo
TTITLE14=Bella
TTITLE15=Questa è la mia casa
TTITLE16=Per te
TTITLE17=Terra degli uomini
EXTD=
EXTT0=
EXTT1=
EXTT2=
EXTT3=
EXTT4=
EXTT5=
EXTT6=
EXTT7=
EXTT8=
EXTT9=
EXTT10=
EXTT11=
EXTT12=
EXTT13=
EXTT14=
EXTT15=
EXTT16=
EXTT17=
PLAYORDER=
